# xmcd
#
# Track frame offsets:
#	150
#	14126
#	30633
#	43308
#	58313
#	70208
#	84306
#	100688
#	111788
#	127800
#
# Disc length: 1834 seconds
# Revision: 0
# Processed by: cddbd v1.5.2PL0 Copyright (c) Steve Scherf et al.
# Submitted via: dBpowerAMP V12.0
#
DISCID=8507280a
DTITLE=The Lonesome River Band - Chronology, Vol. 3
DYEAR=2012
DGENRE=Country
TTITLE0=Long Gone
TTITLE1=Carolyn the Teenage Queen
TTITLE2=Am I a Fool
TTITLE3=Whoop and Ride
TTITLE4=Money in the Bank
TTITLE5=Stray Dogs and Alley Cats
TTITLE6=Who Needs You
TTITLE7=Harvest Time
TTITLE8=Sorry County Blues
TTITLE9=Sittin' on Top of the World
EXTD=
EXTT0=
EXTT1=
EXTT2=
EXTT3=
EXTT4=
EXTT5=
EXTT6=
EXTT7=
EXTT8=
EXTT9=
PLAYORDER=
